<?xml version="1.0" encoding="utf-8"?>
<!-- Generator: Adobe Illustrator 17.0.0, SVG Export Plug-In . SVG Version: 6.00 Build 0)  -->
<!DOCTYPE svg PUBLIC "-//W3C//DTD SVG 1.1//EN" "http://www.w3.org/Graphics/SVG/1.1/DTD/svg11.dtd">
<svg version="1.1" id="Layer_1" xmlns="http://www.w3.org/2000/svg" xmlns:xlink="http://www.w3.org/1999/xlink" x="0px" y="0px"
	 width="19.004px" height="76.5px" viewBox="0 0 19.004 76.5" enable-background="new 0 0 19.004 76.5" xml:space="preserve">
<path fill="#19338E" d="M0.298,58.494l16.97-16.73c0.397-0.392,1.041-0.392,1.439,0c0.398,0.392,0.398,1.027,0,1.419L2.457,59.204
	l15.808,15.584c0.397,0.392,0.397,1.027,0,1.419c-0.397,0.392-1.041,0.392-1.439,0L0.298,59.913C0.107,59.725,0,59.47,0,59.204
	C0,58.937,0.107,58.683,0.298,58.494z"/>
<path opacity="0.5" fill="#19338E" d="M0.298,17.024l16.97-16.73c0.397-0.392,1.041-0.392,1.439,0c0.398,0.392,0.398,1.027,0,1.419
	L2.457,17.734l15.808,15.584c0.397,0.392,0.397,1.027,0,1.419c-0.397,0.392-1.041,0.392-1.439,0L0.298,18.443
	C0.107,18.255,0,18,0,17.734C0,17.467,0.107,17.213,0.298,17.024z"/>
</svg>
