<?xml version="1.0" encoding="utf-8"?>
<!-- Generator: Adobe Illustrator 17.0.0, SVG Export Plug-In . SVG Version: 6.00 Build 0)  -->
<!DOCTYPE svg PUBLIC "-//W3C//DTD SVG 1.1//EN" "http://www.w3.org/Graphics/SVG/1.1/DTD/svg11.dtd">
<svg version="1.1" id="Layer_1" xmlns="http://www.w3.org/2000/svg" xmlns:xlink="http://www.w3.org/1999/xlink" x="0px" y="0px"
	 width="242.825px" height="41px" viewBox="0 0 242.825 41" enable-background="new 0 0 242.825 41" xml:space="preserve">
<g>
	<g>
		<path fill="#FFFFFF" d="M38.979,11.612c-0.144-0.299-0.295-0.593-0.453-0.884c-0.158-0.291-0.322-0.577-0.494-0.859
			c-0.171-0.282-0.349-0.559-0.533-0.832c-0.184-0.273-0.375-0.541-0.572-0.804c-0.197-0.263-0.4-0.521-0.609-0.774
			c-0.209-0.253-0.424-0.501-0.644-0.744c-0.055-0.061-0.111-0.121-0.167-0.181l0.035,4.479l-4.146-0.084l0.052,0.041
			c0.038,0.044,0.076,0.088,0.114,0.133c0.038,0.045,0.075,0.089,0.112,0.134c0.297,0.36,0.577,0.734,0.838,1.121
			c0.262,0.387,0.505,0.788,0.729,1.201c0.224,0.413,0.429,0.837,0.613,1.273c0.368,0.871,0.654,1.785,0.849,2.733
			C34.898,18.514,35,19.495,35,20.5c0,8.042-6.519,14.561-14.561,14.561c-8.042,0-14.561-6.519-14.561-14.561
			c0-8.042,6.519-14.561,14.561-14.561c1.005,0,1.987,0.102,2.935,0.296c0.948,0.194,1.862,0.48,2.733,0.849
			c0.435,0.184,0.86,0.389,1.273,0.613c0.052,0.028,0.103,0.056,0.154,0.085c0.051,0.029,0.102,0.057,0.153,0.087
			c0.051,0.029,0.102,0.059,0.152,0.089c0.05,0.03,0.101,0.06,0.151,0.09c0.05,0.031,0.1,0.061,0.15,0.093
			c0.05,0.031,0.099,0.062,0.148,0.094c0.049,0.032,0.098,0.064,0.147,0.095c0.049,0.032,0.097,0.065,0.146,0.097
			c0.049,0.033,0.097,0.066,0.145,0.099l4.29-0.04l-0.013-4.221c-0.079-0.059-0.161-0.121-0.243-0.182
			C32.676,4.02,32.594,3.959,32.514,3.9c-0.079-0.059-0.156-0.115-0.227-0.166c-0.07-0.051-0.135-0.098-0.19-0.138
			c-0.055-0.039-0.102-0.072-0.136-0.095c-0.273-0.184-0.55-0.362-0.832-0.533c-0.282-0.172-0.568-0.336-0.859-0.494
			c-0.581-0.315-1.179-0.604-1.792-0.863C26.027,0.574,23.331,0,20.5,0C9.178,0,0,9.178,0,20.5C0,31.822,9.178,41,20.5,41
			S41,31.822,41,20.5c0-2.831-0.574-5.527-1.611-7.98C39.26,12.214,39.123,11.911,38.979,11.612z M59.022,15.685
			c1.261,0,2.759,0.398,4.494,1.193l1.536-3.872c-1.998-0.889-3.957-1.333-5.878-1.333c-2.175,0-3.885,0.478-5.129,1.434
			c-1.244,0.957-1.866,2.29-1.866,3.999c0,0.914,0.146,1.706,0.438,2.374c0.292,0.669,0.74,1.261,1.346,1.777
			c0.605,0.516,1.513,1.05,2.723,1.6c1.337,0.601,2.16,0.999,2.469,1.193c0.309,0.195,0.533,0.387,0.673,0.578
			c0.14,0.19,0.21,0.413,0.21,0.667c0,0.406-0.174,0.739-0.521,0.997c-0.347,0.258-0.893,0.387-1.638,0.387
			c-0.863,0-1.811-0.138-2.844-0.413c-1.033-0.275-2.027-0.658-2.983-1.149v4.469c0.905,0.432,1.777,0.734,2.615,0.908
			c0.838,0.173,1.875,0.26,3.11,0.26c1.481,0,2.772-0.248,3.872-0.743c1.1-0.495,1.942-1.189,2.526-2.082
			c0.584-0.893,0.876-1.915,0.876-3.066c0-1.253-0.311-2.292-0.933-3.117c-0.622-0.825-1.733-1.597-3.333-2.317
			c-1.667-0.762-2.689-1.286-3.066-1.574c-0.377-0.288-0.565-0.614-0.565-0.978c0-0.338,0.148-0.622,0.444-0.851
			C57.896,15.799,58.37,15.685,59.022,15.685z M76.288,11.648c-2.945,0-5.19,0.815-6.735,2.444
			c-1.545,1.629-2.317,3.988-2.317,7.078c0,3.123,0.776,5.502,2.329,7.135c1.553,1.633,3.785,2.45,6.697,2.45
			c2.954,0,5.197-0.813,6.729-2.438c1.532-1.625,2.298-3.999,2.298-7.122c0-3.131-0.762-5.505-2.285-7.122
			C81.48,12.456,79.241,11.648,76.288,11.648z M79.087,25.27c-0.614,0.872-1.555,1.308-2.825,1.308
			c-2.497,0-3.745-1.794-3.745-5.383c0-3.622,1.257-5.434,3.771-5.434c1.236,0,2.165,0.442,2.787,1.327
			c0.622,0.884,0.933,2.253,0.933,4.107C80.007,23.04,79.7,24.398,79.087,25.27z M88.64,30.5h4.938v-6.97h5.561v-4.024h-5.561
			v-3.542h6.03V11.94H88.64V30.5z M101.297,16.04h4.532V30.5h5.015V16.04h4.519v-4.1h-14.066V16.04z M128.668,25.118h-0.102
			l-3.872-13.178h-6.678V30.5h4.443v-8.062c0-1.261-0.089-3.03-0.267-5.307h0.114l3.796,13.368h4.773l3.745-13.343h0.114
			c-0.102,2.014-0.159,3.28-0.171,3.796c-0.013,0.516-0.019,0.986-0.019,1.409V30.5h4.608V11.94h-6.69L128.668,25.118z
			 M151.52,11.648c-2.945,0-5.19,0.815-6.735,2.444c-1.545,1.629-2.317,3.988-2.317,7.078c0,3.123,0.776,5.502,2.33,7.135
			c1.553,1.633,3.785,2.45,6.697,2.45c2.954,0,5.197-0.813,6.729-2.438c1.532-1.625,2.298-3.999,2.298-7.122
			c0-3.131-0.762-5.505-2.285-7.122C156.712,12.456,154.474,11.648,151.52,11.648z M154.319,25.27
			c-0.614,0.872-1.555,1.308-2.825,1.308c-2.497,0-3.745-1.794-3.745-5.383c0-3.622,1.257-5.434,3.771-5.434
			c1.236,0,2.165,0.442,2.787,1.327c0.622,0.884,0.933,2.253,0.933,4.107C155.24,23.04,154.933,24.398,154.319,25.27z
			 M162.514,16.04h4.532V30.5h5.015V16.04h4.52v-4.1h-14.066V16.04z M179.234,30.5h5.04V11.94h-5.04V30.5z M196.652,11.648
			c-2.945,0-5.19,0.815-6.735,2.444c-1.545,1.629-2.317,3.988-2.317,7.078c0,3.123,0.776,5.502,2.33,7.135
			c1.553,1.633,3.785,2.45,6.697,2.45c2.954,0,5.197-0.813,6.729-2.438c1.532-1.625,2.298-3.999,2.298-7.122
			c0-3.131-0.762-5.505-2.285-7.122C201.844,12.456,199.605,11.648,196.652,11.648z M199.451,25.27
			c-0.614,0.872-1.555,1.308-2.825,1.308c-2.497,0-3.745-1.794-3.745-5.383c0-3.622,1.257-5.434,3.771-5.434
			c1.236,0,2.164,0.442,2.787,1.327c0.622,0.884,0.933,2.253,0.933,4.107C200.372,23.04,200.065,24.398,199.451,25.27z
			 M222.207,20.332c0,1.134,0.059,2.636,0.178,4.507h-0.076l-6.754-12.898h-6.551V30.5h4.443v-8.366c0-1.083-0.081-2.653-0.241-4.71
			h0.114L220.1,30.5h6.576V11.94h-4.469V20.332z M238.559,19.43c-1.667-0.762-2.689-1.286-3.066-1.574
			c-0.377-0.288-0.565-0.614-0.565-0.978c0-0.338,0.148-0.622,0.444-0.851c0.296-0.229,0.77-0.343,1.422-0.343
			c1.261,0,2.759,0.398,4.494,1.193l1.536-3.872c-1.997-0.889-3.957-1.333-5.878-1.333c-2.175,0-3.885,0.478-5.129,1.434
			c-1.244,0.957-1.866,2.29-1.866,3.999c0,0.914,0.146,1.706,0.438,2.374c0.292,0.669,0.741,1.261,1.346,1.777
			c0.605,0.516,1.513,1.05,2.723,1.6c1.337,0.601,2.16,0.999,2.469,1.193c0.309,0.195,0.533,0.387,0.673,0.578
			c0.14,0.19,0.209,0.413,0.209,0.667c0,0.406-0.174,0.739-0.521,0.997c-0.347,0.258-0.893,0.387-1.638,0.387
			c-0.863,0-1.811-0.138-2.844-0.413c-1.033-0.275-2.027-0.658-2.983-1.149v4.469c0.906,0.432,1.777,0.734,2.615,0.908
			c0.838,0.173,1.874,0.26,3.11,0.26c1.481,0,2.772-0.248,3.872-0.743c1.1-0.495,1.942-1.189,2.526-2.082
			c0.584-0.893,0.876-1.915,0.876-3.066c0-1.253-0.311-2.292-0.933-3.117C241.269,20.922,240.159,20.15,238.559,19.43z"/>
	</g>
</g>
</svg>
