<?xml version="1.0" encoding="utf-8"?>
<!-- Generator: Adobe Illustrator 17.0.0, SVG Export Plug-In . SVG Version: 6.00 Build 0)  -->
<!DOCTYPE svg PUBLIC "-//W3C//DTD SVG 1.1//EN" "http://www.w3.org/Graphics/SVG/1.1/DTD/svg11.dtd">
<svg version="1.1" id="Layer_1" xmlns="http://www.w3.org/2000/svg" xmlns:xlink="http://www.w3.org/1999/xlink" x="0px" y="0px"
	 width="78.227px" height="67px" viewBox="0 0 78.227 67" enable-background="new 0 0 78.227 67" xml:space="preserve">
<pattern  x="-397.905" y="-778.684" width="33.489" height="33.489" patternUnits="userSpaceOnUse" id="New_Pattern_Swatch_1" viewBox="0 -33.489 33.489 33.489" overflow="visible">
	<g>
		<polygon fill="none" points="0,0 33.489,0 33.489,-33.489 0,-33.489 		"/>
		<polygon fill="#19338E" points="33.489,0 0,0 0,-33.489 33.489,-33.489 		"/>
	</g>
</pattern>
<pattern  id="SVGID_1_" xlink:href="#New_Pattern_Swatch_1" patternTransform="matrix(1 0 0 1 -324.1061 36.9003)">
</pattern>
<path opacity="0.3" fill="url(#SVGID_1_)" d="M74.042,48.176C82.121,42.556,78.149,38,65.17,38
	c-12.978,0-30.048,4.556-38.127,10.176C18.964,53.796,23.483,67,23.483,67S65.963,53.796,74.042,48.176z"/>
<linearGradient id="SVGID_2_" gradientUnits="userSpaceOnUse" x1="23.4994" y1="1.956651e-007" x2="23.4994" y2="66.9996">
	<stop  offset="0" style="stop-color:#19338E"/>
	<stop  offset="1" style="stop-color:#3970DE"/>
</linearGradient>
<path fill="url(#SVGID_2_)" d="M46.999,23.51C46.999,10.526,36.478,0,23.499,0S0,10.526,0,23.51C0,36.494,23.499,67,23.499,67
	S46.999,36.494,46.999,23.51z"/>
<path fill="#FFFFFF" d="M32.342,11.921c-0.056-0.042-0.114-0.086-0.172-0.129c-0.058-0.043-0.116-0.087-0.173-0.129
	c-0.056-0.041-0.11-0.081-0.16-0.118c-0.05-0.037-0.095-0.069-0.135-0.097c-0.039-0.028-0.072-0.051-0.096-0.067
	c-0.193-0.13-0.389-0.256-0.588-0.377c-0.199-0.121-0.402-0.238-0.607-0.349c-0.411-0.223-0.834-0.427-1.268-0.61
	c-1.735-0.734-3.642-1.14-5.644-1.14c-8.008,0-14.5,6.492-14.5,14.5c0,8.008,6.492,14.5,14.5,14.5c8.008,0,14.5-6.492,14.5-14.5
	c0-2.002-0.406-3.909-1.139-5.644c-0.092-0.217-0.189-0.431-0.29-0.642c-0.102-0.211-0.209-0.42-0.32-0.625
	c-0.112-0.206-0.228-0.408-0.349-0.607c-0.121-0.2-0.247-0.396-0.377-0.589c-0.13-0.193-0.265-0.382-0.404-0.568
	c-0.139-0.186-0.283-0.369-0.43-0.548c-0.148-0.179-0.3-0.354-0.456-0.526c-0.039-0.043-0.078-0.085-0.118-0.128l0.025,3.168
	l-2.932-0.059l0.036,0.029c0.027,0.031,0.054,0.063,0.08,0.094c0.027,0.032,0.053,0.063,0.079,0.095
	c0.21,0.254,0.408,0.519,0.593,0.793c0.185,0.274,0.357,0.558,0.516,0.849c0.159,0.292,0.303,0.592,0.434,0.9
	c0.261,0.616,0.463,1.263,0.6,1.933c0.137,0.671,0.209,1.365,0.209,2.076c0,5.688-4.611,10.299-10.299,10.299
	c-5.688,0-10.299-4.611-10.299-10.299c0-5.688,4.611-10.299,10.299-10.299c0.711,0,1.405,0.072,2.076,0.209
	c0.67,0.137,1.317,0.34,1.933,0.6c0.308,0.13,0.608,0.275,0.9,0.433c0.037,0.02,0.073,0.04,0.109,0.06
	c0.036,0.02,0.072,0.041,0.108,0.061c0.036,0.021,0.072,0.041,0.108,0.063c0.036,0.021,0.071,0.042,0.107,0.064
	c0.035,0.021,0.071,0.043,0.106,0.065c0.035,0.022,0.07,0.044,0.105,0.066c0.035,0.022,0.069,0.045,0.104,0.068
	c0.035,0.023,0.069,0.045,0.103,0.068c0.034,0.024,0.068,0.047,0.102,0.07 M29.317,14.934l3.034-0.028l-0.009-2.985"/>
</svg>
