<?xml version="1.0" encoding="utf-8"?>
<!-- Generator: Adobe Illustrator 17.0.0, SVG Export Plug-In . SVG Version: 6.00 Build 0)  -->
<!DOCTYPE svg PUBLIC "-//W3C//DTD SVG 1.1//EN" "http://www.w3.org/Graphics/SVG/1.1/DTD/svg11.dtd">
<svg version="1.1" id="Layer_1" xmlns="http://www.w3.org/2000/svg" xmlns:xlink="http://www.w3.org/1999/xlink" x="0px" y="0px"
	 width="19.004px" height="76.5px" viewBox="0 0 19.004 76.5" enable-background="new 0 0 19.004 76.5" xml:space="preserve">
<path fill="#19338E" d="M19.004,59.204c0,0.267-0.107,0.521-0.298,0.709L2.179,76.206c-0.397,0.392-1.041,0.392-1.439,0
	c-0.398-0.392-0.398-1.027,0-1.419l15.808-15.584L0.298,43.183c-0.398-0.392-0.398-1.027,0-1.419c0.397-0.392,1.041-0.392,1.439,0
	l16.97,16.73C18.897,58.683,19.004,58.937,19.004,59.204z"/>
<path opacity="0.5" fill="#19338E" d="M19.004,17.734c0,0.267-0.107,0.521-0.298,0.709L2.179,34.736
	c-0.397,0.392-1.041,0.392-1.439,0c-0.398-0.392-0.398-1.027,0-1.419l15.808-15.584L0.298,1.713c-0.398-0.392-0.398-1.027,0-1.419
	c0.397-0.392,1.041-0.392,1.439,0l16.97,16.73C18.897,17.213,19.004,17.467,19.004,17.734z"/>
</svg>
