<?xml version="1.0" encoding="utf-8"?>
<!-- Generator: Adobe Illustrator 17.0.0, SVG Export Plug-In . SVG Version: 6.00 Build 0)  -->
<!DOCTYPE svg PUBLIC "-//W3C//DTD SVG 1.1//EN" "http://www.w3.org/Graphics/SVG/1.1/DTD/svg11.dtd">
<svg version="1.1" id="Layer_1" xmlns="http://www.w3.org/2000/svg" xmlns:xlink="http://www.w3.org/1999/xlink" x="0px" y="0px"
	 width="76.996px" height="162.089px" viewBox="0 0 76.996 162.089" enable-background="new 0 0 76.996 162.089"
	 xml:space="preserve">
<path fill="#FFFFFF" d="M38.281,51.154c-0.265,0-0.518-0.106-0.705-0.296L21.384,34.439c-0.39-0.395-0.39-1.035,0-1.43
	c0.389-0.395,1.02-0.395,1.41,0l15.487,15.704L54.202,32.57c0.389-0.395,1.02-0.395,1.41,0c0.389,0.395,0.389,1.034,0,1.429
	L38.986,50.858C38.799,51.047,38.546,51.154,38.281,51.154z"/>
<path fill="#FFFFFF" d="M38.498,2c20.125,0,36.498,16.373,36.498,36.498S58.623,74.996,38.498,74.996S2,58.623,2,38.498
	S18.373,2,38.498,2 M38.498,0C17.236,0,0,17.236,0,38.498s17.236,38.498,38.498,38.498c21.262,0,38.498-17.236,38.498-38.498
	S59.76,0,38.498,0L38.498,0z"/>
<path fill="#FFFFFF" d="M38.281,136.247c-0.265,0-0.518-0.106-0.705-0.296l-16.191-16.418c-0.39-0.395-0.39-1.035,0-1.43
	c0.389-0.395,1.02-0.395,1.41,0l15.487,15.704l15.921-16.143c0.389-0.395,1.02-0.395,1.41,0c0.389,0.395,0.389,1.034,0,1.429
	l-16.626,16.858C38.799,136.14,38.546,136.247,38.281,136.247z"/>
<path opacity="0.5" fill="#FFFFFF" d="M38.498,87.093c20.125,0,36.498,16.373,36.498,36.498s-16.373,36.498-36.498,36.498
	S2,143.716,2,123.591S18.373,87.093,38.498,87.093 M38.498,85.093C17.236,85.093,0,102.329,0,123.591s17.236,38.498,38.498,38.498
	c21.262,0,38.498-17.236,38.498-38.498S59.76,85.093,38.498,85.093L38.498,85.093z"/>
</svg>
