<?xml version="1.0" encoding="utf-8"?>
<!-- Generator: Adobe Illustrator 17.0.0, SVG Export Plug-In . SVG Version: 6.00 Build 0)  -->
<!DOCTYPE svg PUBLIC "-//W3C//DTD SVG 1.1//EN" "http://www.w3.org/Graphics/SVG/1.1/DTD/svg11.dtd">
<svg version="1.1" id="Layer_1" xmlns="http://www.w3.org/2000/svg" xmlns:xlink="http://www.w3.org/1999/xlink" x="0px" y="0px"
	 width="193.002px" height="32px" viewBox="0 0 193.002 32" enable-background="new 0 0 193.002 32" xml:space="preserve">
<g>
	<g>
		<path fill="#19338E" d="M30.981,9.063c-0.114-0.233-0.234-0.463-0.36-0.69c-0.125-0.227-0.256-0.45-0.392-0.67
			c-0.136-0.22-0.277-0.437-0.424-0.649c-0.147-0.213-0.298-0.422-0.454-0.628c-0.156-0.205-0.318-0.406-0.484-0.604
			c-0.166-0.198-0.337-0.391-0.512-0.581c-0.044-0.047-0.088-0.094-0.132-0.141l0.028,3.495l-3.295-0.065l0.041,0.032
			c0.031,0.034,0.061,0.069,0.091,0.104c0.03,0.035,0.06,0.07,0.089,0.105c0.236,0.281,0.458,0.573,0.666,0.875
			c0.208,0.303,0.401,0.615,0.58,0.937c0.178,0.322,0.341,0.654,0.487,0.994c0.293,0.68,0.52,1.393,0.674,2.133
			c0.154,0.74,0.235,1.506,0.235,2.29c0,6.276-5.182,11.364-11.573,11.364C9.853,27.365,4.672,22.277,4.672,16
			c0-6.276,5.182-11.365,11.573-11.365c0.799,0,1.579,0.08,2.332,0.231c0.753,0.151,1.48,0.375,2.172,0.662
			c0.346,0.144,0.684,0.304,1.012,0.478c0.041,0.022,0.082,0.044,0.122,0.066c0.041,0.022,0.081,0.045,0.122,0.068
			c0.04,0.023,0.081,0.046,0.121,0.069c0.04,0.023,0.08,0.047,0.12,0.071c0.04,0.024,0.079,0.048,0.119,0.072
			c0.039,0.024,0.079,0.048,0.118,0.073c0.039,0.025,0.078,0.05,0.117,0.075c0.039,0.025,0.077,0.05,0.116,0.075
			c0.038,0.026,0.077,0.052,0.115,0.077l3.41-0.031l-0.01-3.294c-0.063-0.046-0.128-0.095-0.193-0.143
			c-0.065-0.048-0.131-0.096-0.194-0.142c-0.063-0.046-0.124-0.09-0.18-0.13c-0.056-0.04-0.107-0.077-0.151-0.107
			c-0.044-0.031-0.081-0.056-0.108-0.074c-0.217-0.144-0.437-0.282-0.661-0.416c-0.224-0.134-0.452-0.262-0.682-0.385
			c-0.462-0.246-0.937-0.471-1.424-0.674C20.687,0.448,18.544,0,16.294,0C7.295,0,0,7.164,0,16c0,8.836,7.295,16,16.294,16
			c8.999,0,16.294-7.164,16.294-16c0-2.209-0.456-4.314-1.281-6.228C31.204,9.533,31.095,9.297,30.981,9.063z M46.912,12.242
			c1.002,0,2.193,0.311,3.572,0.931l1.221-3.022c-1.588-0.694-3.145-1.04-4.672-1.04c-1.729,0-3.088,0.373-4.076,1.12
			c-0.989,0.747-1.483,1.787-1.483,3.121c0,0.713,0.116,1.331,0.348,1.853c0.232,0.522,0.589,0.984,1.07,1.387
			c0.481,0.403,1.202,0.819,2.164,1.248c1.063,0.469,1.717,0.78,1.963,0.931c0.245,0.152,0.424,0.302,0.535,0.451
			c0.111,0.149,0.167,0.322,0.167,0.52c0,0.317-0.138,0.576-0.414,0.778c-0.276,0.202-0.71,0.302-1.302,0.302
			c-0.686,0-1.44-0.107-2.26-0.322c-0.821-0.215-1.611-0.514-2.371-0.897v3.488c0.72,0.337,1.413,0.573,2.079,0.708
			c0.666,0.135,1.49,0.203,2.472,0.203c1.177,0,2.203-0.193,3.078-0.58c0.874-0.386,1.544-0.928,2.008-1.625
			c0.464-0.697,0.696-1.495,0.696-2.393c0-0.978-0.247-1.788-0.742-2.433c-0.494-0.644-1.377-1.247-2.649-1.808
			c-1.325-0.595-2.138-1.004-2.437-1.229c-0.299-0.224-0.449-0.479-0.449-0.763c0-0.264,0.118-0.485,0.353-0.664
			C46.017,12.331,46.394,12.242,46.912,12.242z M60.635,9.091c-2.341,0-4.125,0.636-5.353,1.907
			c-1.228,1.272-1.841,3.113-1.841,5.524c0,2.438,0.617,4.294,1.852,5.569c1.234,1.275,3.009,1.912,5.323,1.912
			c2.348,0,4.13-0.634,5.348-1.902c1.218-1.268,1.826-3.121,1.826-5.559c0-2.444-0.606-4.297-1.816-5.559
			C64.762,9.722,62.982,9.091,60.635,9.091z M62.86,19.723c-0.488,0.68-1.236,1.021-2.245,1.021c-1.985,0-2.977-1.4-2.977-4.201
			c0-2.827,0.999-4.241,2.997-4.241c0.982,0,1.721,0.345,2.215,1.035c0.494,0.69,0.742,1.759,0.742,3.205
			C63.591,17.983,63.347,19.043,62.86,19.723z M70.453,23.805h3.925v-5.44h4.42v-3.141h-4.42V12.46h4.793V9.319h-8.718V23.805z
			 M80.513,12.52h3.602v11.286h3.986V12.52h3.592V9.319h-11.18V12.52z M102.268,19.604h-0.081L99.11,9.319h-5.308v14.486h3.532
			v-6.292c0-0.984-0.071-2.365-0.212-4.142h0.091l3.017,10.434h3.794l2.977-10.414h0.091c-0.081,1.572-0.126,2.56-0.136,2.963
			c-0.01,0.403-0.015,0.77-0.015,1.1v6.351h3.663V9.319h-5.318L102.268,19.604z M120.431,9.091c-2.341,0-4.125,0.636-5.353,1.907
			c-1.228,1.272-1.842,3.113-1.842,5.524c0,2.438,0.617,4.294,1.852,5.569c1.234,1.275,3.009,1.912,5.323,1.912
			c2.348,0,4.13-0.634,5.348-1.902c1.218-1.268,1.826-3.121,1.826-5.559c0-2.444-0.605-4.297-1.816-5.559
			C124.558,9.722,122.779,9.091,120.431,9.091z M122.656,19.723c-0.488,0.68-1.236,1.021-2.245,1.021
			c-1.984,0-2.977-1.4-2.977-4.201c0-2.827,0.999-4.241,2.997-4.241c0.982,0,1.72,0.345,2.215,1.035
			c0.495,0.69,0.742,1.759,0.742,3.205C123.388,17.983,123.144,19.043,122.656,19.723z M129.169,12.52h3.602v11.286h3.986V12.52
			h3.592V9.319h-11.18V12.52z M142.459,23.805h4.006V9.319h-4.006V23.805z M156.303,9.091c-2.341,0-4.125,0.636-5.353,1.907
			c-1.228,1.272-1.841,3.113-1.841,5.524c0,2.438,0.617,4.294,1.852,5.569c1.234,1.275,3.009,1.912,5.323,1.912
			c2.348,0,4.13-0.634,5.348-1.902c1.217-1.268,1.826-3.121,1.826-5.559c0-2.444-0.605-4.297-1.816-5.559
			C160.43,9.722,158.65,9.091,156.303,9.091z M158.528,19.723c-0.488,0.68-1.236,1.021-2.245,1.021c-1.985,0-2.977-1.4-2.977-4.201
			c0-2.827,0.999-4.241,2.997-4.241c0.982,0,1.721,0.345,2.215,1.035c0.494,0.69,0.742,1.759,0.742,3.205
			C159.259,17.983,159.015,19.043,158.528,19.723z M176.615,15.869c0,0.885,0.047,2.058,0.141,3.518h-0.061l-5.368-10.067h-5.207
			v14.486h3.532v-6.53c0-0.846-0.064-2.071-0.192-3.676h0.091l5.388,10.206h5.227V9.319h-3.552V15.869z M189.611,15.165
			c-1.325-0.595-2.138-1.004-2.437-1.229c-0.299-0.224-0.449-0.479-0.449-0.763c0-0.264,0.118-0.485,0.353-0.664
			c0.235-0.178,0.612-0.268,1.13-0.268c1.002,0,2.193,0.311,3.572,0.931l1.221-3.022c-1.588-0.694-3.145-1.04-4.672-1.04
			c-1.729,0-3.088,0.373-4.077,1.12c-0.989,0.747-1.483,1.787-1.483,3.121c0,0.713,0.116,1.331,0.348,1.853
			c0.232,0.522,0.589,0.984,1.07,1.387c0.481,0.403,1.202,0.819,2.164,1.248c1.063,0.469,1.717,0.78,1.963,0.931
			c0.245,0.152,0.424,0.302,0.535,0.451c0.111,0.149,0.167,0.322,0.167,0.52c0,0.317-0.138,0.576-0.414,0.778
			c-0.276,0.202-0.71,0.302-1.302,0.302c-0.686,0-1.44-0.107-2.26-0.322c-0.821-0.215-1.611-0.514-2.371-0.897v3.488
			c0.72,0.337,1.413,0.573,2.079,0.708c0.666,0.135,1.49,0.203,2.472,0.203c1.177,0,2.203-0.193,3.078-0.58
			c0.874-0.386,1.544-0.928,2.008-1.625c0.464-0.697,0.696-1.495,0.696-2.393c0-0.978-0.247-1.788-0.742-2.433
			C191.766,16.329,190.883,15.727,189.611,15.165z"/>
	</g>
</g>
</svg>
