<?xml version="1.0" encoding="utf-8"?>
<!-- Generator: Adobe Illustrator 17.0.0, SVG Export Plug-In . SVG Version: 6.00 Build 0)  -->
<!DOCTYPE svg PUBLIC "-//W3C//DTD SVG 1.1//EN" "http://www.w3.org/Graphics/SVG/1.1/DTD/svg11.dtd">
<svg version="1.1" id="Layer_1" xmlns="http://www.w3.org/2000/svg" xmlns:xlink="http://www.w3.org/1999/xlink" x="0px" y="0px"
	 width="275.009px" height="332.011px" viewBox="0 0 275.009 332.011" enable-background="new 0 0 275.009 332.011"
	 xml:space="preserve">
<pattern  x="-159.995" y="586.505" width="33.489" height="33.489" patternUnits="userSpaceOnUse" id="SVGID_1_" viewBox="0 -33.489 33.489 33.489" overflow="visible">
	<g>
		<polygon fill="none" points="0,0 33.489,0 33.489,-33.489 0,-33.489 		"/>
		<g>
			<polygon fill="none" points="0,-33.489 33.489,-33.489 33.489,0 0,0 			"/>
			<polygon fill="#19338E" points="33.489,-33.489 0,-33.489 0,0 33.489,0 			"/>
		</g>
	</g>
</pattern>
<g transform="translate(0,-952.36218)">
	<pattern  id="SVGID_2_" xlink:href="#SVGID_1_" patternTransform="matrix(0.4153 0 0 -0.4153 -9757.9082 -6310.6909)">
	</pattern>
	<path fill="url(#SVGID_2_)" d="M253.111,952.362H21.874C9.864,952.362,0,962.226,0,974.236V1262.5
		c0,12.01,9.864,21.874,21.874,21.874h231.238c12.01,0,21.874-9.864,21.874-21.874V974.236
		C274.985,962.226,265.121,952.362,253.111,952.362L253.111,952.362z M262.486,974.236v40.623H12.499v-40.623
		c0-5.302,4.073-9.375,9.375-9.375h231.238C258.413,964.862,262.486,968.935,262.486,974.236z M221.863,989.86
		c0,8.518,7.106,15.624,15.624,15.624c8.518,0,15.624-7.106,15.624-15.624s-7.106-15.624-15.624-15.624
		C228.969,974.236,221.863,981.342,221.863,989.86z M181.24,989.86c0,8.518,7.106,15.624,15.624,15.624
		c8.518,0,15.624-7.106,15.624-15.624s-7.106-15.624-15.624-15.624C188.347,974.236,181.24,981.342,181.24,989.86z M140.617,989.86
		c0,8.518,7.106,15.624,15.624,15.624c8.518,0,15.624-7.106,15.624-15.624s-7.106-15.624-15.624-15.624
		C147.724,974.236,140.617,981.342,140.617,989.86z M240.612,989.86c0,1.615-1.51,3.125-3.125,3.125s-3.125-1.51-3.125-3.125
		s1.51-3.125,3.125-3.125C239.102,986.736,240.612,988.246,240.612,989.86z M199.989,989.86c0,1.615-1.51,3.125-3.125,3.125
		s-3.125-1.51-3.125-3.125s1.51-3.125,3.125-3.125C198.479,986.736,199.989,988.246,199.989,989.86z M159.366,989.86
		c0,1.615-1.51,3.125-3.125,3.125s-3.125-1.51-3.125-3.125s1.51-3.125,3.125-3.125C157.856,986.736,159.366,988.246,159.366,989.86z
		 M262.486,1027.358V1262.5c0,5.302-4.073,9.375-9.374,9.375H21.874c-5.302,0-9.375-4.073-9.375-9.375v-235.141L262.486,1027.358
		L262.486,1027.358z M87.495,1097.717c-25.813,0-46.872,21.06-46.872,46.873s21.059,46.873,46.872,46.873
		c13.749,0,25.989-6.146,34.568-15.624h30.858c8.579,9.478,20.82,15.624,34.568,15.624c25.813,0,46.872-21.059,46.872-46.872
		s-21.06-46.873-46.872-46.873c-13.798,0-26.083,6.086-34.666,15.624h-30.662C113.579,1103.803,101.294,1097.717,87.495,1097.717z
		 M87.495,1110.217c11.068,0,20.853,5.118,27.147,13.183c1.167,1.519,2.967,2.419,4.883,2.441h35.936
		c1.916-0.022,3.715-0.922,4.883-2.441c6.294-8.065,16.079-13.183,27.147-13.183c19.058,0,34.373,15.315,34.373,34.373
		s-15.315,34.373-34.373,34.373c-11.068,0-20.853-5.216-27.147-13.281c-1.187-1.482-2.984-2.345-4.883-2.344h-35.936
		c-1.899-0.001-3.696,0.861-4.883,2.344c-6.294,8.065-16.079,13.281-27.147,13.281c-19.058,0-34.373-15.315-34.373-34.373
		S68.438,1110.217,87.495,1110.217z M87.495,1119.591c-3.452,0-6.25,2.798-6.25,6.25v12.499H68.746c-3.452,0-6.25,2.798-6.25,6.25
		s2.798,6.25,6.25,6.25h12.499v12.499c0,3.452,2.798,6.25,6.25,6.25s6.25-2.798,6.25-6.25v-12.499h12.499
		c3.452,0,6.25-2.798,6.25-6.25s-2.798-6.25-6.25-6.25H93.745v-12.499C93.745,1122.389,90.947,1119.591,87.495,1119.591z
		 M187.49,1119.591c-5.103,0-9.374,4.271-9.374,9.375c0,5.103,4.271,9.375,9.374,9.375s9.374-4.271,9.374-9.375
		C196.864,1123.862,192.593,1119.591,187.49,1119.591z M171.866,1135.215c-5.103,0-9.374,4.271-9.374,9.375s4.271,9.375,9.374,9.375
		s9.374-4.271,9.374-9.375S176.969,1135.215,171.866,1135.215z M203.114,1135.215c-5.103,0-9.374,4.271-9.374,9.375
		s4.271,9.375,9.374,9.375s9.375-4.271,9.375-9.375S208.217,1135.215,203.114,1135.215z M187.49,1150.839
		c-5.103,0-9.374,4.271-9.374,9.375c0,5.103,4.271,9.375,9.374,9.375s9.374-4.271,9.374-9.375
		C196.864,1155.111,192.593,1150.839,187.49,1150.839z"/>
</g>
</svg>
