<?xml version="1.0" encoding="utf-8"?>
<!-- Generator: Adobe Illustrator 17.0.0, SVG Export Plug-In . SVG Version: 6.00 Build 0)  -->
<!DOCTYPE svg PUBLIC "-//W3C//DTD SVG 1.1//EN" "http://www.w3.org/Graphics/SVG/1.1/DTD/svg11.dtd">
<svg version="1.1" id="Layer_1" xmlns="http://www.w3.org/2000/svg" xmlns:xlink="http://www.w3.org/1999/xlink" x="0px" y="0px"
	 width="275.009px" height="332.011px" viewBox="0 0 275.009 332.011" enable-background="new 0 0 275.009 332.011"
	 xml:space="preserve">
<pattern  x="-643.394" y="-482.181" width="33.489" height="33.489" patternUnits="userSpaceOnUse" id="New_Pattern_Swatch_1" viewBox="0 -33.489 33.489 33.489" overflow="visible">
	<g>
		<polygon fill="none" points="0,0 33.489,0 33.489,-33.489 0,-33.489 		"/>
		<polygon fill="#19338E" points="33.489,0 0,0 0,-33.489 33.489,-33.489 		"/>
	</g>
</pattern>
<path fill="url(#New_Pattern_Swatch_1)" d="M137.503,332.011C69.912,332.011,0,313.657,0,282.94V49.071C0,18.355,69.912,0,137.503,0
	c67.591,0,137.506,18.355,137.506,49.071V282.94C275.009,313.657,205.094,332.011,137.503,332.011z M8.992,282.94
	c0,13.196,22.477,22.725,35.875,27.231c17.355,5.837,47.515,12.792,92.635,12.792c45.122,0,75.282-6.955,92.637-12.792
	c13.398-4.506,35.875-14.035,35.875-27.231v-58.521l-9.979,6.009c-24.194,14.573-69.613,23.627-118.533,23.627
	c-48.92,0-94.339-9.054-118.533-23.627l-9.978-6.009V282.94z M8.992,204.985c0,13.195,22.477,22.724,35.875,27.23
	c17.355,5.836,47.515,12.793,92.635,12.793c45.122,0,75.282-6.957,92.637-12.793c13.398-4.506,35.875-14.036,35.875-27.23v-58.517
	l-9.979,6.009c-24.189,14.57-69.608,23.621-118.533,23.621c-48.925,0-94.345-9.051-118.533-23.622l-9.978-6.009V204.985z
	 M8.992,127.028c0,13.191,22.476,22.72,35.875,27.226c17.356,5.838,47.517,12.796,92.636,12.796
	c45.122,0,75.282-6.959,92.637-12.796c13.398-4.506,35.875-14.036,35.875-27.226V68.511l-9.979,6.01
	c-24.191,14.57-69.61,23.621-118.533,23.621c-48.923,0-94.342-9.051-118.533-23.621l-9.978-6.01V127.028z M137.503,9.049
	c-45.12,0-75.281,6.958-92.636,12.796C31.469,26.351,8.992,35.88,8.992,49.071c0,13.191,22.476,22.72,35.875,27.226
	c17.356,5.838,47.518,12.796,92.636,12.796c45.122,0,75.282-6.958,92.637-12.796c13.398-4.506,35.875-14.035,35.875-27.226
	s-22.477-22.72-35.875-27.226C212.785,16.007,182.626,9.049,137.503,9.049z M37.748,276.328c-2.479,0-4.496-2.03-4.496-4.524
	c0-2.494,2.017-4.524,4.496-4.524c2.479,0,4.496,2.03,4.496,4.524C42.244,274.297,40.227,276.328,37.748,276.328z M37.748,198.372
	c-2.479,0-4.496-2.03-4.496-4.525c0-2.495,2.017-4.523,4.496-4.523c2.479,0,4.496,2.029,4.496,4.523
	C42.244,196.342,40.227,198.372,37.748,198.372z M37.748,120.416c-2.479,0-4.496-2.03-4.496-4.524c0-2.495,2.017-4.525,4.496-4.525
	c2.479,0,4.496,2.03,4.496,4.525C42.244,118.386,40.227,120.416,37.748,120.416z"/>
</svg>
