<?xml version="1.0" encoding="utf-8"?>
<!-- Generator: Adobe Illustrator 17.0.0, SVG Export Plug-In . SVG Version: 6.00 Build 0)  -->
<!DOCTYPE svg PUBLIC "-//W3C//DTD SVG 1.1//EN" "http://www.w3.org/Graphics/SVG/1.1/DTD/svg11.dtd">
<svg version="1.1" id="Layer_1" xmlns="http://www.w3.org/2000/svg" xmlns:xlink="http://www.w3.org/1999/xlink" x="0px" y="0px"
	 width="275.009px" height="332.011px" viewBox="0 0 275.009 332.011" enable-background="new 0 0 275.009 332.011"
	 xml:space="preserve">
<pattern  x="-159.995" y="586.505" width="33.489" height="33.489" patternUnits="userSpaceOnUse" id="SVGID_1_" viewBox="0 -33.489 33.489 33.489" overflow="visible">
	<g>
		<polygon fill="none" points="0,0 33.489,0 33.489,-33.489 0,-33.489 		"/>
		<g>
			<polygon fill="none" points="0,-33.489 33.489,-33.489 33.489,0 0,0 			"/>
			<polygon fill="#19338E" points="33.489,-33.489 0,-33.489 0,0 33.489,0 			"/>
		</g>
	</g>
</pattern>
<pattern  x="-159.995" y="586.505" width="33.489" height="33.489" patternUnits="userSpaceOnUse" id="SVGID_10_" viewBox="0 -33.489 33.489 33.489" overflow="visible">
	<g>
		<polygon fill="none" points="0,0 33.489,0 33.489,-33.489 0,-33.489 		"/>
		<g>
			<polygon fill="none" points="0,-33.489 33.489,-33.489 33.489,0 0,0 			"/>
			<polygon fill="#19338E" points="33.489,-33.489 0,-33.489 0,0 33.489,0 			"/>
		</g>
	</g>
</pattern>
<pattern  x="-159.995" y="586.505" width="33.489" height="33.489" patternUnits="userSpaceOnUse" id="SVGID_11_" viewBox="0 -33.489 33.489 33.489" overflow="visible">
	<g>
		<polygon fill="none" points="0,0 33.489,0 33.489,-33.489 0,-33.489 		"/>
		<g>
			<polygon fill="none" points="0,-33.489 33.489,-33.489 33.489,0 0,0 			"/>
			<polygon fill="#19338E" points="33.489,-33.489 0,-33.489 0,0 33.489,0 			"/>
		</g>
	</g>
</pattern>
<pattern  x="-159.995" y="586.505" width="33.489" height="33.489" patternUnits="userSpaceOnUse" id="SVGID_2_" viewBox="0 -33.489 33.489 33.489" overflow="visible">
	<g>
		<polygon fill="none" points="0,0 33.489,0 33.489,-33.489 0,-33.489 		"/>
		<g>
			<polygon fill="none" points="0,-33.489 33.489,-33.489 33.489,0 0,0 			"/>
			<polygon fill="#19338E" points="33.489,-33.489 0,-33.489 0,0 33.489,0 			"/>
		</g>
	</g>
</pattern>
<pattern  x="-159.995" y="586.505" width="33.489" height="33.489" patternUnits="userSpaceOnUse" id="SVGID_3_" viewBox="0 -33.489 33.489 33.489" overflow="visible">
	<g>
		<polygon fill="none" points="0,0 33.489,0 33.489,-33.489 0,-33.489 		"/>
		<g>
			<polygon fill="none" points="0,-33.489 33.489,-33.489 33.489,0 0,0 			"/>
			<polygon fill="#19338E" points="33.489,-33.489 0,-33.489 0,0 33.489,0 			"/>
		</g>
	</g>
</pattern>
<pattern  x="-159.995" y="586.505" width="33.489" height="33.489" patternUnits="userSpaceOnUse" id="SVGID_4_" viewBox="0 -33.489 33.489 33.489" overflow="visible">
	<g>
		<polygon fill="none" points="0,0 33.489,0 33.489,-33.489 0,-33.489 		"/>
		<g>
			<polygon fill="none" points="0,-33.489 33.489,-33.489 33.489,0 0,0 			"/>
			<polygon fill="#19338E" points="33.489,-33.489 0,-33.489 0,0 33.489,0 			"/>
		</g>
	</g>
</pattern>
<pattern  x="-159.995" y="586.505" width="33.489" height="33.489" patternUnits="userSpaceOnUse" id="SVGID_5_" viewBox="0 -33.489 33.489 33.489" overflow="visible">
	<g>
		<polygon fill="none" points="0,0 33.489,0 33.489,-33.489 0,-33.489 		"/>
		<g>
			<polygon fill="none" points="0,-33.489 33.489,-33.489 33.489,0 0,0 			"/>
			<polygon fill="#19338E" points="33.489,-33.489 0,-33.489 0,0 33.489,0 			"/>
		</g>
	</g>
</pattern>
<pattern  x="-159.995" y="586.505" width="33.489" height="33.489" patternUnits="userSpaceOnUse" id="SVGID_6_" viewBox="0 -33.489 33.489 33.489" overflow="visible">
	<g>
		<polygon fill="none" points="0,0 33.489,0 33.489,-33.489 0,-33.489 		"/>
		<g>
			<polygon fill="none" points="0,-33.489 33.489,-33.489 33.489,0 0,0 			"/>
			<polygon fill="#19338E" points="33.489,-33.489 0,-33.489 0,0 33.489,0 			"/>
		</g>
	</g>
</pattern>
<pattern  x="-159.995" y="586.505" width="33.489" height="33.489" patternUnits="userSpaceOnUse" id="SVGID_7_" viewBox="0 -33.489 33.489 33.489" overflow="visible">
	<g>
		<polygon fill="none" points="0,0 33.489,0 33.489,-33.489 0,-33.489 		"/>
		<g>
			<polygon fill="none" points="0,-33.489 33.489,-33.489 33.489,0 0,0 			"/>
			<polygon fill="#19338E" points="33.489,-33.489 0,-33.489 0,0 33.489,0 			"/>
		</g>
	</g>
</pattern>
<pattern  x="-159.995" y="586.505" width="33.489" height="33.489" patternUnits="userSpaceOnUse" id="SVGID_8_" viewBox="0 -33.489 33.489 33.489" overflow="visible">
	<g>
		<polygon fill="none" points="0,0 33.489,0 33.489,-33.489 0,-33.489 		"/>
		<g>
			<polygon fill="none" points="0,-33.489 33.489,-33.489 33.489,0 0,0 			"/>
			<polygon fill="#19338E" points="33.489,-33.489 0,-33.489 0,0 33.489,0 			"/>
		</g>
	</g>
</pattern>
<pattern  x="-159.995" y="586.505" width="33.489" height="33.489" patternUnits="userSpaceOnUse" id="SVGID_9_" viewBox="0 -33.489 33.489 33.489" overflow="visible">
	<g>
		<polygon fill="none" points="0,0 33.489,0 33.489,-33.489 0,-33.489 		"/>
		<g>
			<polygon fill="none" points="0,-33.489 33.489,-33.489 33.489,0 0,0 			"/>
			<polygon fill="#19338E" points="33.489,-33.489 0,-33.489 0,0 33.489,0 			"/>
		</g>
	</g>
</pattern>
<pattern  id="SVGID_12_" xlink:href="#SVGID_1_" patternTransform="matrix(0.4153 0 0 -0.4153 -9424.7891 -7263.0532)">
</pattern>
<path fill="url(#SVGID_12_)" d="M138.986,161.168c-24.999,0-50.856-6.789-50.856-18.149V56.521
	c0-11.361,25.857-18.149,50.856-18.149s50.857,6.789,50.857,18.149v86.497C189.843,154.379,163.985,161.168,138.986,161.168z
	 M91.456,143.019c0,4.881,8.313,8.405,13.269,10.072c6.419,2.159,17.573,4.731,34.262,4.731s27.844-2.572,34.262-4.731
	c4.955-1.666,13.268-5.191,13.268-10.072v-21.644l-3.691,2.223c-8.948,5.39-25.747,8.739-43.84,8.739s-34.892-3.349-43.84-8.739
	l-3.69-2.223C91.456,121.375,91.456,143.019,91.456,143.019z M91.456,114.187c0,4.88,8.313,8.405,13.269,10.071
	c6.419,2.159,17.573,4.731,34.262,4.731s27.844-2.573,34.262-4.731c4.955-1.666,13.268-5.191,13.268-10.071V92.544l-3.691,2.222
	c-8.947,5.389-25.745,8.736-43.84,8.736s-34.894-3.348-43.84-8.737l-3.69-2.223C91.456,92.542,91.456,114.187,91.456,114.187z
	 M91.456,85.354c0,4.879,8.313,8.403,13.268,10.07c6.419,2.159,17.574,4.733,34.262,4.733c16.689,0,27.844-2.574,34.262-4.733
	c4.955-1.667,13.268-5.191,13.268-10.07V63.711l-3.691,2.223c-8.947,5.389-25.746,8.736-43.84,8.736s-34.893-3.348-43.84-8.736
	l-3.69-2.223L91.456,85.354L91.456,85.354z M138.986,41.719c-16.688,0-27.843,2.574-34.262,4.733
	c-4.955,1.667-13.268,5.191-13.268,10.07s8.313,8.403,13.268,10.07c6.419,2.159,17.575,4.733,34.262,4.733
	c16.689,0,27.844-2.574,34.262-4.733c4.955-1.666,13.268-5.191,13.268-10.07s-8.313-8.403-13.268-10.07
	C166.83,44.292,155.675,41.719,138.986,41.719z M102.091,140.573c-0.917,0-1.663-0.751-1.663-1.673s0.746-1.673,1.663-1.673
	s1.663,0.751,1.663,1.673C103.754,139.822,103.008,140.573,102.091,140.573z M102.091,111.741c-0.917,0-1.663-0.751-1.663-1.674
	c0-0.923,0.746-1.673,1.663-1.673s1.663,0.75,1.663,1.673C103.754,110.99,103.008,111.741,102.091,111.741z M102.091,82.908
	c-0.917,0-1.663-0.751-1.663-1.673c0-0.923,0.746-1.674,1.663-1.674s1.663,0.751,1.663,1.674
	C103.754,82.158,103.008,82.908,102.091,82.908z"/>
<pattern  id="SVGID_13_" xlink:href="#SVGID_2_" patternTransform="matrix(1 0 0 -1 -727.0884 -16488.3926)">
</pattern>
<path fill="url(#SVGID_13_)" d="M255.645,0.026H19.39c-10.726,0-19.452,8.69-19.452,19.371v293.218
	c0,10.682,8.726,19.371,19.452,19.371h236.254c10.726,0,19.452-8.689,19.452-19.371V19.397
	C275.097,8.716,266.371,0.026,255.645,0.026z M268.118,20.654V63.61v6.95v40.124v201.932c0,6.966-5.48,12.422-12.473,12.422H19.39
	c-6.994,0-12.474-5.457-12.474-12.422V110.683V70.56v-6.95V20.654v-1.258c0-6.966,5.48-12.422,12.474-12.422h236.254
	c6.994,0,12.473,5.457,12.473,12.422v1.258H268.118z"/>
<g>
	<g>
		<pattern  id="SVGID_14_" xlink:href="#SVGID_3_" patternTransform="matrix(0 0.5104 1.2384 0 -13358.8281 -314.007)">
		</pattern>
		<rect x="145.644" y="202.834" fill="url(#SVGID_14_)" width="93.962" height="6.978"/>
		<pattern  id="SVGID_15_" xlink:href="#SVGID_4_" patternTransform="matrix(0 0.5104 1.2384 0 -13358.8281 -314.007)">
		</pattern>
		<rect x="39.034" y="202.834" fill="url(#SVGID_15_)" width="93.963" height="6.978"/>
	</g>
	<pattern  id="SVGID_16_" xlink:href="#SVGID_5_" patternTransform="matrix(-0.5104 0 0 0.1589 -23267.0918 1966.1569)">
	</pattern>
	<rect x="135.832" y="193.454" fill="url(#SVGID_16_)" width="6.978" height="25.738"/>
</g>
<g>
	<g>
		<pattern  id="SVGID_17_" xlink:href="#SVGID_6_" patternTransform="matrix(0 0.5104 1.2384 0 -13358.8281 -351.67)">
		</pattern>
		<rect x="93.69" y="240.497" fill="url(#SVGID_17_)" width="145.917" height="6.978"/>
		<pattern  id="SVGID_18_" xlink:href="#SVGID_7_" patternTransform="matrix(0 0.5104 1.2384 0 -13358.8281 -351.67)">
		</pattern>
		<rect x="39.034" y="240.497" fill="url(#SVGID_18_)" width="42.008" height="6.978"/>
	</g>
	<pattern  id="SVGID_19_" xlink:href="#SVGID_8_" patternTransform="matrix(-0.5104 0 0 0.1589 -23267.7676 1928.4938)">
	</pattern>
	<rect x="83.877" y="231.117" fill="url(#SVGID_19_)" width="6.978" height="25.738"/>
</g>
<g>
	<g>
		<pattern  id="SVGID_20_" xlink:href="#SVGID_9_" patternTransform="matrix(0 0.5104 1.2384 0 -13358.8281 -387.5372)">
		</pattern>
		<rect x="196.939" y="276.364" fill="url(#SVGID_20_)" width="42.667" height="6.978"/>
		<pattern  id="SVGID_21_" xlink:href="#SVGID_10_" patternTransform="matrix(0 0.5104 1.2384 0 -13358.8281 -387.5372)">
		</pattern>
		<rect x="39.034" y="276.364" fill="url(#SVGID_21_)" width="145.258" height="6.978"/>
	</g>
	<pattern  id="SVGID_22_" xlink:href="#SVGID_11_" patternTransform="matrix(-0.5104 0 0 0.1589 -23267.0762 1892.6266)">
	</pattern>
	<rect x="187.126" y="266.984" fill="url(#SVGID_22_)" width="6.978" height="25.738"/>
</g>
</svg>
