<?xml version="1.0" encoding="utf-8"?>
<!-- Generator: Adobe Illustrator 17.0.0, SVG Export Plug-In . SVG Version: 6.00 Build 0)  -->
<!DOCTYPE svg PUBLIC "-//W3C//DTD SVG 1.1//EN" "http://www.w3.org/Graphics/SVG/1.1/DTD/svg11.dtd">
<svg version="1.1" id="Layer_1" xmlns="http://www.w3.org/2000/svg" xmlns:xlink="http://www.w3.org/1999/xlink" x="0px" y="0px"
	 width="275.009px" height="332.011px" viewBox="0 0 275.009 332.011" enable-background="new 0 0 275.009 332.011"
	 xml:space="preserve">
<pattern  x="-159.995" y="586.505" width="33.489" height="33.489" patternUnits="userSpaceOnUse" id="SVGID_1_" viewBox="0 -33.489 33.489 33.489" overflow="visible">
	<g>
		<polygon fill="none" points="0,0 33.489,0 33.489,-33.489 0,-33.489 		"/>
		<g>
			<polygon fill="none" points="0,-33.489 33.489,-33.489 33.489,0 0,0 			"/>
			<polygon fill="#19338E" points="33.489,-33.489 0,-33.489 0,0 33.489,0 			"/>
		</g>
	</g>
</pattern>
<pattern  x="-159.995" y="586.505" width="33.489" height="33.489" patternUnits="userSpaceOnUse" id="SVGID_2_" viewBox="0 -33.489 33.489 33.489" overflow="visible">
	<g>
		<polygon fill="none" points="0,0 33.489,0 33.489,-33.489 0,-33.489 		"/>
		<g>
			<polygon fill="none" points="0,-33.489 33.489,-33.489 33.489,0 0,0 			"/>
			<polygon fill="#19338E" points="33.489,-33.489 0,-33.489 0,0 33.489,0 			"/>
		</g>
	</g>
</pattern>
<pattern  x="-159.995" y="586.505" width="33.489" height="33.489" patternUnits="userSpaceOnUse" id="SVGID_3_" viewBox="0 -33.489 33.489 33.489" overflow="visible">
	<g>
		<polygon fill="none" points="0,0 33.489,0 33.489,-33.489 0,-33.489 		"/>
		<g>
			<polygon fill="none" points="0,-33.489 33.489,-33.489 33.489,0 0,0 			"/>
			<polygon fill="#19338E" points="33.489,-33.489 0,-33.489 0,0 33.489,0 			"/>
		</g>
	</g>
</pattern>
<pattern  x="-159.995" y="586.505" width="33.489" height="33.489" patternUnits="userSpaceOnUse" id="SVGID_4_" viewBox="0 -33.489 33.489 33.489" overflow="visible">
	<g>
		<polygon fill="none" points="0,0 33.489,0 33.489,-33.489 0,-33.489 		"/>
		<g>
			<polygon fill="none" points="0,-33.489 33.489,-33.489 33.489,0 0,0 			"/>
			<polygon fill="#19338E" points="33.489,-33.489 0,-33.489 0,0 33.489,0 			"/>
		</g>
	</g>
</pattern>
<pattern  x="-159.995" y="586.505" width="33.489" height="33.489" patternUnits="userSpaceOnUse" id="SVGID_5_" viewBox="0 -33.489 33.489 33.489" overflow="visible">
	<g>
		<polygon fill="none" points="0,0 33.489,0 33.489,-33.489 0,-33.489 		"/>
		<g>
			<polygon fill="none" points="0,-33.489 33.489,-33.489 33.489,0 0,0 			"/>
			<polygon fill="#19338E" points="33.489,-33.489 0,-33.489 0,0 33.489,0 			"/>
		</g>
	</g>
</pattern>
<pattern  x="-159.995" y="586.505" width="33.489" height="33.489" patternUnits="userSpaceOnUse" id="SVGID_6_" viewBox="0 -33.489 33.489 33.489" overflow="visible">
	<g>
		<polygon fill="none" points="0,0 33.489,0 33.489,-33.489 0,-33.489 		"/>
		<g>
			<polygon fill="none" points="0,-33.489 33.489,-33.489 33.489,0 0,0 			"/>
			<polygon fill="#19338E" points="33.489,-33.489 0,-33.489 0,0 33.489,0 			"/>
		</g>
	</g>
</pattern>
<g>
	<pattern  id="SVGID_7_" xlink:href="#SVGID_1_" patternTransform="matrix(1 0 0 -1 -1320.2847 -16488.3926)">
	</pattern>
	<path fill="url(#SVGID_7_)" d="M223.444,138.338H80.211c-3.151,0-5.729,2.49-5.729,5.534c0,3.043,2.578,5.534,5.729,5.534h143.234
		c3.151,0,5.729-2.49,5.729-5.534S226.596,138.338,223.444,138.338z"/>
	<pattern  id="SVGID_8_" xlink:href="#SVGID_2_" patternTransform="matrix(1 0 0 -1 -1320.2847 -16488.3926)">
	</pattern>
	<path fill="url(#SVGID_8_)" d="M80.211,105.137h57.293c3.151,0,5.729-2.49,5.729-5.534s-2.578-5.534-5.729-5.534H80.211
		c-3.151,0-5.729,2.49-5.729,5.534S77.06,105.137,80.211,105.137z"/>
	<pattern  id="SVGID_9_" xlink:href="#SVGID_3_" patternTransform="matrix(1 0 0 -1 -1320.2847 -16488.3926)">
	</pattern>
	<path fill="url(#SVGID_9_)" d="M223.444,182.606H80.211c-3.151,0-5.729,2.49-5.729,5.534c0,3.043,2.578,5.534,5.729,5.534h143.234
		c3.151,0,5.729-2.49,5.729-5.534C229.174,185.096,226.596,182.606,223.444,182.606z"/>
	<pattern  id="SVGID_10_" xlink:href="#SVGID_4_" patternTransform="matrix(1 0 0 -1 -1320.2847 -16488.3926)">
	</pattern>
	<path fill="url(#SVGID_10_)" d="M223.444,226.874H80.211c-3.151,0-5.729,2.49-5.729,5.534c0,3.043,2.578,5.534,5.729,5.534h143.234
		c3.151,0,5.729-2.49,5.729-5.534C229.174,229.365,226.596,226.874,223.444,226.874z"/>
	<pattern  id="SVGID_11_" xlink:href="#SVGID_5_" patternTransform="matrix(1 0 0 -1 -1320.2847 -16488.3926)">
	</pattern>
	<path fill="url(#SVGID_11_)" d="M223.444,271.143H80.211c-3.151,0-5.729,2.49-5.729,5.534c0,3.043,2.578,5.534,5.729,5.534h143.234
		c3.151,0,5.729-2.49,5.729-5.534S226.596,271.143,223.444,271.143z"/>
	<pattern  id="SVGID_12_" xlink:href="#SVGID_6_" patternTransform="matrix(1 0 0 -1 -1320.2847 -16488.3926)">
	</pattern>
	<path fill="url(#SVGID_12_)" d="M246.362,80.734V0H0v304.344h28.647v27.668h246.362v-223.61L246.362,80.734z M194.798,46.537
		l51.564,49.802l9.11,8.798h-60.674V46.537z M11.459,293.277V11.067h223.444v58.6l-43.486-41.999H28.647v265.609H11.459z
		 M40.105,320.944v-16.601V38.735h143.234v77.469h80.211v204.74H40.105z"/>
</g>
</svg>
