<?xml version="1.0" encoding="utf-8"?>
<!-- Generator: Adobe Illustrator 17.0.0, SVG Export Plug-In . SVG Version: 6.00 Build 0)  -->
<!DOCTYPE svg PUBLIC "-//W3C//DTD SVG 1.1//EN" "http://www.w3.org/Graphics/SVG/1.1/DTD/svg11.dtd">
<svg version="1.1" id="Layer_1" xmlns="http://www.w3.org/2000/svg" xmlns:xlink="http://www.w3.org/1999/xlink" x="0px" y="0px"
	 width="275.009px" height="332.011px" viewBox="0 0 275.009 332.011" enable-background="new 0 0 275.009 332.011"
	 xml:space="preserve">
<pattern  x="-159.995" y="586.505" width="33.489" height="33.489" patternUnits="userSpaceOnUse" id="SVGID_1_" viewBox="0 -33.489 33.489 33.489" overflow="visible">
	<g>
		<polygon fill="none" points="0,0 33.489,0 33.489,-33.489 0,-33.489 		"/>
		<g>
			<polygon fill="none" points="0,-33.489 33.489,-33.489 33.489,0 0,0 			"/>
			<polygon fill="#19338E" points="33.489,-33.489 0,-33.489 0,0 33.489,0 			"/>
		</g>
	</g>
</pattern>
<pattern  x="-159.995" y="586.505" width="33.489" height="33.489" patternUnits="userSpaceOnUse" id="SVGID_2_" viewBox="0 -33.489 33.489 33.489" overflow="visible">
	<g>
		<polygon fill="none" points="0,0 33.489,0 33.489,-33.489 0,-33.489 		"/>
		<g>
			<polygon fill="none" points="0,-33.489 33.489,-33.489 33.489,0 0,0 			"/>
			<polygon fill="#19338E" points="33.489,-33.489 0,-33.489 0,0 33.489,0 			"/>
		</g>
	</g>
</pattern>
<pattern  x="-159.995" y="586.505" width="33.489" height="33.489" patternUnits="userSpaceOnUse" id="SVGID_3_" viewBox="0 -33.489 33.489 33.489" overflow="visible">
	<g>
		<polygon fill="none" points="0,0 33.489,0 33.489,-33.489 0,-33.489 		"/>
		<g>
			<polygon fill="none" points="0,-33.489 33.489,-33.489 33.489,0 0,0 			"/>
			<polygon fill="#19338E" points="33.489,-33.489 0,-33.489 0,0 33.489,0 			"/>
		</g>
	</g>
</pattern>
<pattern  x="-159.995" y="586.505" width="33.489" height="33.489" patternUnits="userSpaceOnUse" id="SVGID_4_" viewBox="0 -33.489 33.489 33.489" overflow="visible">
	<g>
		<polygon fill="none" points="0,0 33.489,0 33.489,-33.489 0,-33.489 		"/>
		<g>
			<polygon fill="none" points="0,-33.489 33.489,-33.489 33.489,0 0,0 			"/>
			<polygon fill="#19338E" points="33.489,-33.489 0,-33.489 0,0 33.489,0 			"/>
		</g>
	</g>
</pattern>
<g>
	<g>
		<pattern  id="SVGID_5_" xlink:href="#SVGID_1_" patternTransform="matrix(0.4153 0 0 -0.4153 -9471.7422 -7263.0532)">
		</pattern>
		<polygon fill="url(#SVGID_5_)" points="32.655,273.333 0.62,330.978 0,332.011 2.208,332.011 275.094,332.011 243.146,273.333 		
			"/>
	</g>
	<g>
		<pattern  id="SVGID_6_" xlink:href="#SVGID_2_" patternTransform="matrix(0.4153 0 0 -0.4153 -9471.7422 -7263.0532)">
		</pattern>
		<polygon fill="url(#SVGID_6_)" points="37.124,193.454 0.62,259.139 0,260.172 2.208,260.172 39.969,260.172 235.981,260.172 
			275.094,260.172 238.769,193.454 		"/>
	</g>
	<g>
		<pattern  id="SVGID_7_" xlink:href="#SVGID_3_" patternTransform="matrix(0.4153 0 0 -0.4153 -9471.7422 -7263.0532)">
		</pattern>
		<polygon fill="url(#SVGID_7_)" points="37.481,112.931 0.62,179.26 0,180.293 2.208,180.293 44.438,180.293 231.603,180.293 
			275.094,180.293 238.419,112.931 		"/>
	</g>
</g>
<g>
	<pattern  id="SVGID_8_" xlink:href="#SVGID_4_" patternTransform="matrix(0.4153 0 0 -0.4153 -9471.7422 -7263.0532)">
	</pattern>
	<path fill="url(#SVGID_8_)" d="M213.942,11.1l42.288,77.67H19.101L62.265,11.1H213.942 M220.478,0.1H55.793L0.62,99.38l-0.234,0.39
		h274.358L220.478,0.1L220.478,0.1z"/>
</g>
</svg>
