<?xml version="1.0" standalone="no"?>
<!DOCTYPE svg PUBLIC "-//W3C//DTD SVG 20010904//EN"
 "http://www.w3.org/TR/2001/REC-SVG-20010904/DTD/svg10.dtd">
<svg version="1.0" xmlns="http://www.w3.org/2000/svg"
 width="700.000000pt" height="700.000000pt" viewBox="0 0 700.000000 700.000000"
 preserveAspectRatio="xMidYMid meet">
<metadata>
Created by potrace 1.11, written by Peter Selinger 2001-2013
</metadata>
<g transform="translate(0.000000,700.000000) scale(0.100000,-0.100000)"
fill="#000000" stroke="none">
<path d="M3298 6995 c-2 -1 -41 -5 -88 -9 -100 -7 -225 -22 -295 -36 -27 -5
-61 -12 -75 -14 -596 -109 -1206 -409 -1660 -817 -126 -114 -178 -166 -331
-335 -107 -118 -286 -370 -386 -545 -158 -274 -309 -656 -369 -932 -20 -90
-53 -272 -59 -322 -4 -33 -9 -69 -11 -80 -18 -98 -25 -572 -11 -715 12 -109
27 -226 41 -295 2 -11 6 -36 10 -55 49 -272 156 -595 283 -857 313 -646 812
-1179 1433 -1529 262 -148 448 -225 790 -328 105 -32 351 -82 453 -92 34 -3
65 -8 68 -9 29 -18 535 -26 709 -12 152 13 368 47 475 74 33 8 67 16 75 18
109 22 388 117 550 188 119 51 305 146 352 178 14 11 29 19 33 19 13 0 269
175 362 248 180 140 344 294 476 447 33 39 63 72 67 75 3 3 44 55 90 115 332
437 547 915 654 1456 14 70 28 155 32 190 3 35 8 67 10 70 9 17 19 214 18 399
0 184 -5 307 -18 410 -2 19 -7 58 -10 86 -4 28 -8 59 -10 70 -2 10 -11 60 -21
109 -87 465 -285 935 -561 1331 -69 99 -206 272 -271 343 l-41 44 4 -382 3
-382 -202 5 c-337 8 -492 8 -491 1 1 -4 26 -37 55 -73 225 -280 406 -655 483
-1002 15 -68 20 -94 35 -200 25 -166 32 -438 17 -575 -11 -95 -24 -185 -36
-245 -6 -30 -13 -66 -16 -80 -59 -311 -264 -732 -494 -1016 -63 -77 -240 -260
-310 -319 -259 -220 -547 -381 -860 -480 -149 -47 -289 -80 -390 -91 -25 -3
-51 -7 -59 -10 -66 -22 -514 -22 -626 0 -11 2 -42 7 -69 10 -108 15 -276 56
-406 99 -608 203 -1129 652 -1420 1222 -185 362 -274 730 -274 1130 0 114 9
277 18 320 2 11 7 45 11 75 4 30 13 84 22 120 8 36 17 75 19 88 2 12 20 73 39
135 86 283 239 574 432 817 72 92 264 288 353 362 197 163 451 312 680 401 36
13 74 28 85 32 11 5 22 9 25 10 3 0 37 11 75 23 62 19 169 46 230 58 11 2 31
6 45 9 14 3 43 7 65 10 22 3 51 7 65 10 130 26 505 24 670 -5 30 -5 73 -12 95
-15 74 -10 239 -53 348 -90 191 -65 373 -151 543 -259 l81 -52 174 3 c96 1
260 2 364 2 l191 1 -2 358 c-1 196 -2 359 -3 362 -2 9 -174 133 -261 189 -333
213 -749 382 -1148 466 -98 20 -246 43 -392 60 -56 7 -526 16 -532 10z"/>
</g>
</svg>
